G04 #@! TF.GenerationSoftware,KiCad,Pcbnew,7.0.1-0*
G04 #@! TF.CreationDate,2024-06-17T20:01:34+02:00*
G04 #@! TF.ProjectId,1541_Diskettenlocher,31353431-5f44-4697-936b-657474656e6c,0.2.1*
G04 #@! TF.SameCoordinates,Original*
G04 #@! TF.FileFunction,Legend,Bot*
G04 #@! TF.FilePolarity,Positive*
%FSLAX46Y46*%
G04 Gerber Fmt 4.6, Leading zero omitted, Abs format (unit mm)*
G04 Created by KiCad (PCBNEW 7.0.1-0) date 2024-06-17 20:01:34*
%MOMM*%
%LPD*%
G01*
G04 APERTURE LIST*
%ADD10R,1.700000X1.700000*%
%ADD11O,1.700000X1.700000*%
%ADD12C,1.600000*%
%ADD13O,1.600000X1.600000*%
%ADD14C,3.200000*%
%ADD15R,1.600000X2.400000*%
%ADD16O,1.600000X2.400000*%
G04 APERTURE END LIST*
%LPC*%
D10*
X110490000Y-126985000D03*
D11*
X110490000Y-124445000D03*
X110490000Y-121905000D03*
D12*
X93980000Y-138430000D03*
D13*
X104140000Y-138430000D03*
D10*
X119380000Y-120808000D03*
D11*
X119380000Y-123348000D03*
X119380000Y-125888000D03*
X119380000Y-128428000D03*
X119380000Y-130968000D03*
X119380000Y-133508000D03*
X119380000Y-136048000D03*
D12*
X101600000Y-133350000D03*
X96600000Y-133350000D03*
D14*
X96000000Y-151000000D03*
D12*
X77470000Y-133350000D03*
D13*
X87630000Y-133350000D03*
D15*
X102870000Y-120650000D03*
D16*
X100330000Y-120650000D03*
X97790000Y-120650000D03*
X95250000Y-120650000D03*
X92710000Y-120650000D03*
X90170000Y-120650000D03*
X87630000Y-120650000D03*
X87630000Y-128270000D03*
X90170000Y-128270000D03*
X92710000Y-128270000D03*
X95250000Y-128270000D03*
X97790000Y-128270000D03*
X100330000Y-128270000D03*
X102870000Y-128270000D03*
D12*
X77470000Y-138430000D03*
D13*
X87630000Y-138430000D03*
D10*
X77470000Y-124460000D03*
D11*
X80010000Y-124460000D03*
X77470000Y-127000000D03*
X80010000Y-127000000D03*
D10*
X71120000Y-120650000D03*
D11*
X71120000Y-123190000D03*
X71120000Y-125730000D03*
X71120000Y-128270000D03*
X71120000Y-130810000D03*
D10*
X110490000Y-132080000D03*
D11*
X110490000Y-134620000D03*
X110490000Y-137160000D03*
M02*
