M48
; DRILL file {KiCad 7.0.1-0} date 2024 June 17, Monday 20:01:38
; FORMAT={-:-/ absolute / metric / decimal}
; #@! TF.CreationDate,2024-06-17T20:01:38+02:00
; #@! TF.GenerationSoftware,Kicad,Pcbnew,7.0.1-0
; #@! TF.FileFunction,Plated,1,2,PTH
FMAT,2
METRIC
; #@! TA.AperFunction,Plated,PTH,ViaDrill
T1C0.400
; #@! TA.AperFunction,Plated,PTH,ComponentDrill
T2C0.800
; #@! TA.AperFunction,Plated,PTH,ComponentDrill
T3C1.000
%
G90
G05
T1
X99.314Y-124.968
T2
X77.47Y-133.35
X77.47Y-138.43
X87.63Y-120.65
X87.63Y-128.27
X87.63Y-133.35
X87.63Y-138.43
X90.17Y-120.65
X90.17Y-128.27
X92.71Y-120.65
X92.71Y-128.27
X93.98Y-138.43
X95.25Y-120.65
X95.25Y-128.27
X96.6Y-133.35
X97.79Y-120.65
X97.79Y-128.27
X100.33Y-120.65
X100.33Y-128.27
X101.6Y-133.35
X102.87Y-120.65
X102.87Y-128.27
X104.14Y-138.43
T3
X71.12Y-120.65
X71.12Y-123.19
X71.12Y-125.73
X71.12Y-128.27
X71.12Y-130.81
X77.47Y-124.46
X77.47Y-127.0
X80.01Y-124.46
X80.01Y-127.0
X110.49Y-121.905
X110.49Y-124.445
X110.49Y-126.985
X110.49Y-132.08
X110.49Y-134.62
X110.49Y-137.16
X119.38Y-120.808
X119.38Y-123.348
X119.38Y-125.888
X119.38Y-128.428
X119.38Y-130.968
X119.38Y-133.508
X119.38Y-136.048
T0
M30
