G04 #@! TF.GenerationSoftware,KiCad,Pcbnew,7.0.1-0*
G04 #@! TF.CreationDate,2024-06-17T20:01:34+02:00*
G04 #@! TF.ProjectId,1541_Diskettenlocher,31353431-5f44-4697-936b-657474656e6c,0.2.1*
G04 #@! TF.SameCoordinates,Original*
G04 #@! TF.FileFunction,Copper,L2,Bot*
G04 #@! TF.FilePolarity,Positive*
%FSLAX46Y46*%
G04 Gerber Fmt 4.6, Leading zero omitted, Abs format (unit mm)*
G04 Created by KiCad (PCBNEW 7.0.1-0) date 2024-06-17 20:01:34*
%MOMM*%
%LPD*%
G01*
G04 APERTURE LIST*
G04 #@! TA.AperFunction,ComponentPad*
%ADD10R,1.700000X1.700000*%
G04 #@! TD*
G04 #@! TA.AperFunction,ComponentPad*
%ADD11O,1.700000X1.700000*%
G04 #@! TD*
G04 #@! TA.AperFunction,ComponentPad*
%ADD12C,1.600000*%
G04 #@! TD*
G04 #@! TA.AperFunction,ComponentPad*
%ADD13O,1.600000X1.600000*%
G04 #@! TD*
G04 #@! TA.AperFunction,ComponentPad*
%ADD14R,1.600000X2.400000*%
G04 #@! TD*
G04 #@! TA.AperFunction,ComponentPad*
%ADD15O,1.600000X2.400000*%
G04 #@! TD*
G04 #@! TA.AperFunction,ViaPad*
%ADD16C,0.600000*%
G04 #@! TD*
G04 #@! TA.AperFunction,Conductor*
%ADD17C,0.508000*%
G04 #@! TD*
G04 #@! TA.AperFunction,Conductor*
%ADD18C,0.254000*%
G04 #@! TD*
G04 APERTURE END LIST*
D10*
X110490000Y-126985000D03*
D11*
X110490000Y-124445000D03*
X110490000Y-121905000D03*
D12*
X93980000Y-138430000D03*
D13*
X104140000Y-138430000D03*
D10*
X119380000Y-120808000D03*
D11*
X119380000Y-123348000D03*
X119380000Y-125888000D03*
X119380000Y-128428000D03*
X119380000Y-130968000D03*
X119380000Y-133508000D03*
X119380000Y-136048000D03*
D12*
X101600000Y-133350000D03*
X96600000Y-133350000D03*
X77470000Y-133350000D03*
D13*
X87630000Y-133350000D03*
D14*
X102870000Y-120650000D03*
D15*
X100330000Y-120650000D03*
X97790000Y-120650000D03*
X95250000Y-120650000D03*
X92710000Y-120650000D03*
X90170000Y-120650000D03*
X87630000Y-120650000D03*
X87630000Y-128270000D03*
X90170000Y-128270000D03*
X92710000Y-128270000D03*
X95250000Y-128270000D03*
X97790000Y-128270000D03*
X100330000Y-128270000D03*
X102870000Y-128270000D03*
D12*
X77470000Y-138430000D03*
D13*
X87630000Y-138430000D03*
D10*
X77470000Y-124460000D03*
D11*
X80010000Y-124460000D03*
X77470000Y-127000000D03*
X80010000Y-127000000D03*
D10*
X71120000Y-120650000D03*
D11*
X71120000Y-123190000D03*
X71120000Y-125730000D03*
X71120000Y-128270000D03*
X71120000Y-130810000D03*
D10*
X110490000Y-132080000D03*
D11*
X110490000Y-134620000D03*
X110490000Y-137160000D03*
D16*
X99314000Y-124968000D03*
D17*
X102870000Y-132080000D02*
X101600000Y-133350000D01*
X101600000Y-133350000D02*
X101600000Y-134874000D01*
X74168000Y-121920000D02*
X74168000Y-130048000D01*
X98044000Y-138430000D02*
X93980000Y-138430000D01*
X109220000Y-119380000D02*
X117952000Y-119380000D01*
X117952000Y-119380000D02*
X119380000Y-120808000D01*
X77470000Y-133350000D02*
X77470000Y-138430000D01*
X102870000Y-128270000D02*
X102870000Y-132080000D01*
X74168000Y-130048000D02*
X77470000Y-133350000D01*
X102870000Y-125730000D02*
X109220000Y-119380000D01*
X71120000Y-120650000D02*
X72898000Y-120650000D01*
X72898000Y-120650000D02*
X74168000Y-121920000D01*
X101600000Y-134874000D02*
X98044000Y-138430000D01*
X102870000Y-128270000D02*
X102870000Y-125730000D01*
D18*
X102870000Y-120650000D02*
X100330000Y-123190000D01*
X84836000Y-135636000D02*
X87630000Y-138430000D01*
X84836000Y-126238000D02*
X84836000Y-135636000D01*
X87884000Y-123190000D02*
X84836000Y-126238000D01*
X100330000Y-123190000D02*
X87884000Y-123190000D01*
X110490000Y-134620000D02*
X117952000Y-134620000D01*
X117952000Y-134620000D02*
X119380000Y-136048000D01*
X111491000Y-124445000D02*
X110490000Y-124445000D01*
X118014000Y-130968000D02*
X111491000Y-124445000D01*
X119380000Y-130968000D02*
X118014000Y-130968000D01*
X100330000Y-120650000D02*
X98298000Y-122682000D01*
X92202000Y-122682000D02*
X90170000Y-120650000D01*
X98298000Y-122682000D02*
X92202000Y-122682000D01*
X89662000Y-130302000D02*
X87630000Y-128270000D01*
X95758000Y-130302000D02*
X89662000Y-130302000D01*
X95758000Y-130302000D02*
X97790000Y-128270000D01*
G04 #@! TA.AperFunction,Conductor*
G36*
X123128000Y-117364613D02*
G01*
X123173387Y-117410000D01*
X123190000Y-117472000D01*
X123190000Y-157610000D01*
X123173387Y-157672000D01*
X123128000Y-157717387D01*
X123066000Y-157734000D01*
X104124000Y-157734000D01*
X104062000Y-157717387D01*
X104016613Y-157672000D01*
X104000000Y-157610000D01*
X104000000Y-143000000D01*
X88000000Y-143000000D01*
X88000000Y-157610000D01*
X87983387Y-157672000D01*
X87938000Y-157717387D01*
X87876000Y-157734000D01*
X67434000Y-157734000D01*
X67372000Y-157717387D01*
X67326613Y-157672000D01*
X67310000Y-157610000D01*
X67310000Y-130810000D01*
X69756843Y-130810000D01*
X69775435Y-131034363D01*
X69775435Y-131034366D01*
X69775436Y-131034368D01*
X69815447Y-131192368D01*
X69830705Y-131252618D01*
X69921138Y-131458788D01*
X69921140Y-131458791D01*
X70044278Y-131647268D01*
X70196760Y-131812906D01*
X70374424Y-131951189D01*
X70572426Y-132058342D01*
X70785365Y-132131444D01*
X71007431Y-132168500D01*
X71232569Y-132168500D01*
X71454635Y-132131444D01*
X71667574Y-132058342D01*
X71865576Y-131951189D01*
X72043240Y-131812906D01*
X72195722Y-131647268D01*
X72318860Y-131458791D01*
X72409296Y-131252616D01*
X72464564Y-131034368D01*
X72483156Y-130810000D01*
X72464564Y-130585632D01*
X72409296Y-130367384D01*
X72318860Y-130161209D01*
X72195722Y-129972732D01*
X72043240Y-129807094D01*
X71865576Y-129668811D01*
X71829067Y-129649053D01*
X71781563Y-129603474D01*
X71764086Y-129540000D01*
X71781563Y-129476526D01*
X71829067Y-129430946D01*
X71865576Y-129411189D01*
X72043240Y-129272906D01*
X72195722Y-129107268D01*
X72318860Y-128918791D01*
X72409296Y-128712616D01*
X72464564Y-128494368D01*
X72483156Y-128270000D01*
X72464564Y-128045632D01*
X72409296Y-127827384D01*
X72332616Y-127652571D01*
X72318861Y-127621211D01*
X72274982Y-127554049D01*
X72195722Y-127432732D01*
X72043240Y-127267094D01*
X71904956Y-127159462D01*
X71865575Y-127128810D01*
X71822302Y-127105392D01*
X71776663Y-127062842D01*
X71757525Y-127003452D01*
X71769734Y-126942261D01*
X71810198Y-126894763D01*
X71991078Y-126768109D01*
X72158106Y-126601081D01*
X72293600Y-126407576D01*
X72393430Y-126193492D01*
X72450636Y-125980000D01*
X69789364Y-125980000D01*
X69846569Y-126193492D01*
X69946399Y-126407576D01*
X70081893Y-126601081D01*
X70248918Y-126768106D01*
X70429802Y-126894763D01*
X70470265Y-126942261D01*
X70482474Y-127003452D01*
X70463336Y-127062842D01*
X70417698Y-127105392D01*
X70374422Y-127128812D01*
X70196760Y-127267094D01*
X70044279Y-127432730D01*
X69921138Y-127621211D01*
X69851835Y-127779209D01*
X69830704Y-127827384D01*
X69828201Y-127837268D01*
X69775435Y-128045636D01*
X69756843Y-128269999D01*
X69775435Y-128494363D01*
X69775435Y-128494366D01*
X69775436Y-128494368D01*
X69815447Y-128652368D01*
X69830705Y-128712618D01*
X69921138Y-128918788D01*
X69921140Y-128918791D01*
X70044278Y-129107268D01*
X70196760Y-129272906D01*
X70374424Y-129411189D01*
X70374426Y-129411190D01*
X70410931Y-129430946D01*
X70458436Y-129476527D01*
X70475913Y-129540000D01*
X70458436Y-129603473D01*
X70410931Y-129649054D01*
X70374426Y-129668809D01*
X70196760Y-129807094D01*
X70044279Y-129972730D01*
X69921138Y-130161211D01*
X69851835Y-130319209D01*
X69830704Y-130367384D01*
X69786816Y-130540694D01*
X69775435Y-130585636D01*
X69756843Y-130810000D01*
X67310000Y-130810000D01*
X67310000Y-123440000D01*
X69789364Y-123440000D01*
X69846569Y-123653492D01*
X69946399Y-123867576D01*
X70081893Y-124061081D01*
X70248918Y-124228106D01*
X70435031Y-124358425D01*
X70473896Y-124402743D01*
X70487907Y-124460000D01*
X70473896Y-124517257D01*
X70435031Y-124561575D01*
X70248918Y-124691893D01*
X70081890Y-124858921D01*
X69946400Y-125052421D01*
X69846569Y-125266507D01*
X69789364Y-125479999D01*
X69789364Y-125480000D01*
X70870000Y-125480000D01*
X70870000Y-123440000D01*
X71370000Y-123440000D01*
X71370000Y-125480000D01*
X72450636Y-125480000D01*
X72450635Y-125479999D01*
X72393430Y-125266507D01*
X72293599Y-125052421D01*
X72158109Y-124858921D01*
X71991081Y-124691893D01*
X71804968Y-124561575D01*
X71766103Y-124517257D01*
X71752092Y-124460000D01*
X71766103Y-124402743D01*
X71804968Y-124358425D01*
X71991081Y-124228106D01*
X72158106Y-124061081D01*
X72293600Y-123867576D01*
X72393430Y-123653492D01*
X72450636Y-123440000D01*
X71370000Y-123440000D01*
X70870000Y-123440000D01*
X69789364Y-123440000D01*
X67310000Y-123440000D01*
X67310000Y-121548634D01*
X69761500Y-121548634D01*
X69768011Y-121609205D01*
X69819110Y-121746203D01*
X69906738Y-121863261D01*
X70023793Y-121950887D01*
X70023796Y-121950889D01*
X70153382Y-121999222D01*
X70203759Y-122034200D01*
X70231212Y-122089045D01*
X70229023Y-122150338D01*
X70197728Y-122203084D01*
X70081888Y-122318924D01*
X69946400Y-122512421D01*
X69846569Y-122726507D01*
X69789364Y-122939999D01*
X69789364Y-122940000D01*
X72450636Y-122940000D01*
X72450635Y-122939999D01*
X72393430Y-122726507D01*
X72293599Y-122512421D01*
X72158109Y-122318921D01*
X72042272Y-122203084D01*
X72010976Y-122150338D01*
X72008787Y-122089045D01*
X72036240Y-122034200D01*
X72086615Y-121999223D01*
X72216204Y-121950889D01*
X72333261Y-121863261D01*
X72420889Y-121746204D01*
X72455430Y-121653598D01*
X72471988Y-121609205D01*
X72471988Y-121609203D01*
X72471989Y-121609201D01*
X72474073Y-121589807D01*
X72500119Y-121526123D01*
X72556108Y-121486126D01*
X72624801Y-121482136D01*
X72685043Y-121515380D01*
X73032923Y-121863261D01*
X73369181Y-122199519D01*
X73396061Y-122239747D01*
X73405500Y-122287200D01*
X73405500Y-129983418D01*
X73404191Y-130001388D01*
X73400634Y-130025672D01*
X73405028Y-130075896D01*
X73405500Y-130086703D01*
X73405500Y-130092415D01*
X73409159Y-130123731D01*
X73409525Y-130127312D01*
X73416266Y-130204356D01*
X73420619Y-130223992D01*
X73447068Y-130296659D01*
X73448252Y-130300065D01*
X73472587Y-130373504D01*
X73481350Y-130391602D01*
X73523863Y-130456242D01*
X73525798Y-130459279D01*
X73544578Y-130489724D01*
X73565812Y-130524149D01*
X73565813Y-130524150D01*
X73566406Y-130525111D01*
X73579101Y-130540694D01*
X73635375Y-130593786D01*
X73637962Y-130596299D01*
X76134533Y-133092871D01*
X76163374Y-133138141D01*
X76170380Y-133191359D01*
X76156501Y-133349999D01*
X76176456Y-133578084D01*
X76176457Y-133578087D01*
X76234934Y-133796326D01*
X76235717Y-133799246D01*
X76332474Y-134006744D01*
X76332476Y-134006746D01*
X76332477Y-134006749D01*
X76463802Y-134194300D01*
X76625700Y-134356198D01*
X76654625Y-134376452D01*
X76693489Y-134420768D01*
X76707500Y-134478025D01*
X76707500Y-137301975D01*
X76693489Y-137359232D01*
X76654625Y-137403547D01*
X76625700Y-137423802D01*
X76625696Y-137423805D01*
X76463805Y-137585696D01*
X76463802Y-137585699D01*
X76463802Y-137585700D01*
X76413134Y-137658061D01*
X76332474Y-137773255D01*
X76235717Y-137980753D01*
X76176456Y-138201915D01*
X76156501Y-138430000D01*
X76176456Y-138658084D01*
X76235717Y-138879246D01*
X76332474Y-139086744D01*
X76332476Y-139086746D01*
X76332477Y-139086749D01*
X76463802Y-139274300D01*
X76625700Y-139436198D01*
X76813251Y-139567523D01*
X77020757Y-139664284D01*
X77241913Y-139723543D01*
X77470000Y-139743498D01*
X77698087Y-139723543D01*
X77919243Y-139664284D01*
X78126749Y-139567523D01*
X78314300Y-139436198D01*
X78476198Y-139274300D01*
X78607523Y-139086749D01*
X78704284Y-138879243D01*
X78763543Y-138658087D01*
X78783498Y-138430000D01*
X78763543Y-138201913D01*
X78704284Y-137980757D01*
X78607523Y-137773251D01*
X78476198Y-137585700D01*
X78314300Y-137423802D01*
X78285374Y-137403547D01*
X78246511Y-137359232D01*
X78232500Y-137301975D01*
X78232500Y-134478025D01*
X78246511Y-134420768D01*
X78285374Y-134376452D01*
X78314300Y-134356198D01*
X78476198Y-134194300D01*
X78607523Y-134006749D01*
X78704284Y-133799243D01*
X78763543Y-133578087D01*
X78783498Y-133350000D01*
X78763543Y-133121913D01*
X78704284Y-132900757D01*
X78607523Y-132693251D01*
X78476198Y-132505700D01*
X78314300Y-132343802D01*
X78126749Y-132212477D01*
X78126746Y-132212476D01*
X78126744Y-132212474D01*
X77919246Y-132115717D01*
X77919243Y-132115716D01*
X77751287Y-132070712D01*
X77698084Y-132056456D01*
X77469999Y-132036501D01*
X77311359Y-132050380D01*
X77258141Y-132043374D01*
X77212871Y-132014533D01*
X74966819Y-129768481D01*
X74939939Y-129728253D01*
X74930500Y-129680800D01*
X74930500Y-126999999D01*
X76106843Y-126999999D01*
X76125435Y-127224363D01*
X76125435Y-127224366D01*
X76125436Y-127224368D01*
X76178201Y-127432732D01*
X76180705Y-127442618D01*
X76271138Y-127648788D01*
X76271140Y-127648791D01*
X76394278Y-127837268D01*
X76546760Y-128002906D01*
X76724424Y-128141189D01*
X76922426Y-128248342D01*
X77135365Y-128321444D01*
X77357431Y-128358500D01*
X77582569Y-128358500D01*
X77804635Y-128321444D01*
X78017574Y-128248342D01*
X78215576Y-128141189D01*
X78393240Y-128002906D01*
X78545722Y-127837268D01*
X78636192Y-127698793D01*
X78680981Y-127657562D01*
X78739998Y-127642616D01*
X78799016Y-127657561D01*
X78843807Y-127698794D01*
X78934275Y-127837265D01*
X78934277Y-127837267D01*
X78934278Y-127837268D01*
X79086760Y-128002906D01*
X79264424Y-128141189D01*
X79462426Y-128248342D01*
X79675365Y-128321444D01*
X79897431Y-128358500D01*
X80122569Y-128358500D01*
X80344635Y-128321444D01*
X80557574Y-128248342D01*
X80755576Y-128141189D01*
X80933240Y-128002906D01*
X81085722Y-127837268D01*
X81208860Y-127648791D01*
X81299296Y-127442616D01*
X81354564Y-127224368D01*
X81373156Y-127000000D01*
X81354564Y-126775632D01*
X81299296Y-126557384D01*
X81208860Y-126351209D01*
X81121750Y-126217877D01*
X84195765Y-126217877D01*
X84199950Y-126262151D01*
X84200500Y-126273820D01*
X84200500Y-135552150D01*
X84198204Y-135572941D01*
X84200439Y-135644044D01*
X84200500Y-135647939D01*
X84200500Y-135675980D01*
X84201022Y-135680115D01*
X84201937Y-135691749D01*
X84203334Y-135736207D01*
X84209056Y-135755902D01*
X84213001Y-135774948D01*
X84215572Y-135795300D01*
X84231940Y-135836642D01*
X84235722Y-135847689D01*
X84248129Y-135890389D01*
X84258570Y-135908045D01*
X84267127Y-135925513D01*
X84274679Y-135944586D01*
X84300825Y-135980573D01*
X84307225Y-135990315D01*
X84329866Y-136028598D01*
X84329868Y-136028600D01*
X84344363Y-136043095D01*
X84357000Y-136057891D01*
X84369056Y-136074485D01*
X84403328Y-136102838D01*
X84411967Y-136110700D01*
X86321066Y-138019799D01*
X86353160Y-138075386D01*
X86353160Y-138139572D01*
X86336456Y-138201912D01*
X86316501Y-138430000D01*
X86336456Y-138658084D01*
X86395717Y-138879246D01*
X86492474Y-139086744D01*
X86492476Y-139086746D01*
X86492477Y-139086749D01*
X86623802Y-139274300D01*
X86785700Y-139436198D01*
X86973251Y-139567523D01*
X87180757Y-139664284D01*
X87401913Y-139723543D01*
X87630000Y-139743498D01*
X87858087Y-139723543D01*
X88079243Y-139664284D01*
X88286749Y-139567523D01*
X88474300Y-139436198D01*
X88636198Y-139274300D01*
X88767523Y-139086749D01*
X88864284Y-138879243D01*
X88923543Y-138658087D01*
X88943498Y-138430000D01*
X88923543Y-138201913D01*
X88864284Y-137980757D01*
X88767523Y-137773251D01*
X88636198Y-137585700D01*
X88474300Y-137423802D01*
X88286749Y-137292477D01*
X88286746Y-137292476D01*
X88286744Y-137292474D01*
X88079246Y-137195717D01*
X88079243Y-137195716D01*
X87920423Y-137153160D01*
X87858084Y-137136456D01*
X87630000Y-137116501D01*
X87401912Y-137136456D01*
X87339572Y-137153160D01*
X87275386Y-137153160D01*
X87219799Y-137121066D01*
X85507819Y-135409086D01*
X85480939Y-135368858D01*
X85471500Y-135321405D01*
X85471500Y-133350000D01*
X86316501Y-133350000D01*
X86336456Y-133578084D01*
X86336457Y-133578087D01*
X86394934Y-133796326D01*
X86395717Y-133799246D01*
X86492474Y-134006744D01*
X86492476Y-134006746D01*
X86492477Y-134006749D01*
X86623802Y-134194300D01*
X86785700Y-134356198D01*
X86973251Y-134487523D01*
X87180757Y-134584284D01*
X87401913Y-134643543D01*
X87630000Y-134663498D01*
X87858087Y-134643543D01*
X88079243Y-134584284D01*
X88286749Y-134487523D01*
X88370291Y-134429026D01*
X95874526Y-134429026D01*
X95947515Y-134480133D01*
X96153673Y-134576266D01*
X96373397Y-134635141D01*
X96600000Y-134654966D01*
X96826602Y-134635141D01*
X97046326Y-134576266D01*
X97252480Y-134480134D01*
X97325472Y-134429025D01*
X96600001Y-133703553D01*
X96600000Y-133703553D01*
X95874526Y-134429025D01*
X95874526Y-134429026D01*
X88370291Y-134429026D01*
X88474300Y-134356198D01*
X88636198Y-134194300D01*
X88767523Y-134006749D01*
X88864284Y-133799243D01*
X88923543Y-133578087D01*
X88943498Y-133350000D01*
X95295033Y-133350000D01*
X95314858Y-133576602D01*
X95373733Y-133796326D01*
X95469866Y-134002484D01*
X95520972Y-134075471D01*
X95520974Y-134075472D01*
X96246446Y-133350001D01*
X96953553Y-133350001D01*
X97679025Y-134075472D01*
X97730134Y-134002480D01*
X97826266Y-133796326D01*
X97885141Y-133576602D01*
X97904966Y-133350000D01*
X97885141Y-133123397D01*
X97826266Y-132903673D01*
X97730133Y-132697515D01*
X97679025Y-132624526D01*
X96953553Y-133350000D01*
X96953553Y-133350001D01*
X96246446Y-133350001D01*
X96246446Y-133350000D01*
X95520973Y-132624526D01*
X95520973Y-132624527D01*
X95469865Y-132697516D01*
X95373733Y-132903672D01*
X95314858Y-133123397D01*
X95295033Y-133350000D01*
X88943498Y-133350000D01*
X88923543Y-133121913D01*
X88864284Y-132900757D01*
X88767523Y-132693251D01*
X88636198Y-132505700D01*
X88474300Y-132343802D01*
X88370290Y-132270973D01*
X95874526Y-132270973D01*
X96600000Y-132996446D01*
X96600001Y-132996446D01*
X97325472Y-132270974D01*
X97325471Y-132270972D01*
X97252484Y-132219866D01*
X97046326Y-132123733D01*
X96826602Y-132064858D01*
X96600000Y-132045033D01*
X96373397Y-132064858D01*
X96153672Y-132123733D01*
X95947516Y-132219865D01*
X95874527Y-132270973D01*
X95874526Y-132270973D01*
X88370290Y-132270973D01*
X88286749Y-132212477D01*
X88286746Y-132212476D01*
X88286744Y-132212474D01*
X88079246Y-132115717D01*
X88079243Y-132115716D01*
X87911287Y-132070712D01*
X87858084Y-132056456D01*
X87630000Y-132036501D01*
X87401915Y-132056456D01*
X87180753Y-132115717D01*
X86973255Y-132212474D01*
X86905870Y-132259658D01*
X86803064Y-132331644D01*
X86785696Y-132343805D01*
X86623805Y-132505696D01*
X86492474Y-132693255D01*
X86395717Y-132900753D01*
X86336456Y-133121915D01*
X86316501Y-133350000D01*
X85471500Y-133350000D01*
X85471500Y-128727129D01*
X86321500Y-128727129D01*
X86336456Y-128898084D01*
X86395717Y-129119246D01*
X86492474Y-129326744D01*
X86492475Y-129326745D01*
X86492477Y-129326749D01*
X86623802Y-129514300D01*
X86785700Y-129676198D01*
X86973251Y-129807523D01*
X86973254Y-129807524D01*
X86973255Y-129807525D01*
X87064187Y-129849927D01*
X87180757Y-129904284D01*
X87401913Y-129963543D01*
X87630000Y-129983498D01*
X87858087Y-129963543D01*
X88079243Y-129904284D01*
X88195810Y-129849927D01*
X88244608Y-129838362D01*
X88293997Y-129847071D01*
X88335896Y-129874629D01*
X89153341Y-130692074D01*
X89166429Y-130708409D01*
X89218280Y-130757100D01*
X89221078Y-130759811D01*
X89240906Y-130779639D01*
X89244202Y-130782195D01*
X89253075Y-130789773D01*
X89285494Y-130820217D01*
X89303461Y-130830094D01*
X89319724Y-130840776D01*
X89335933Y-130853350D01*
X89376746Y-130871011D01*
X89387232Y-130876148D01*
X89426193Y-130897567D01*
X89426197Y-130897569D01*
X89446067Y-130902670D01*
X89464462Y-130908968D01*
X89483292Y-130917117D01*
X89527219Y-130924073D01*
X89538642Y-130926439D01*
X89581718Y-130937500D01*
X89602226Y-130937500D01*
X89621624Y-130939026D01*
X89641879Y-130942235D01*
X89686150Y-130938050D01*
X89697820Y-130937500D01*
X95674150Y-130937500D01*
X95694941Y-130939795D01*
X95697717Y-130939707D01*
X95697719Y-130939708D01*
X95766043Y-130937561D01*
X95769939Y-130937500D01*
X95797979Y-130937500D01*
X95797983Y-130937500D01*
X95802120Y-130936977D01*
X95813757Y-130936061D01*
X95858205Y-130934665D01*
X95877901Y-130928942D01*
X95896946Y-130924997D01*
X95917299Y-130922427D01*
X95958659Y-130906051D01*
X95969679Y-130902278D01*
X96012393Y-130889869D01*
X96030044Y-130879429D01*
X96047512Y-130870871D01*
X96066588Y-130863319D01*
X96102582Y-130837166D01*
X96112315Y-130830774D01*
X96150598Y-130808134D01*
X96165100Y-130793631D01*
X96179888Y-130781000D01*
X96196487Y-130768942D01*
X96224835Y-130734673D01*
X96232687Y-130726043D01*
X97084105Y-129874626D01*
X97126003Y-129847070D01*
X97175391Y-129838361D01*
X97224185Y-129849926D01*
X97340757Y-129904284D01*
X97561913Y-129963543D01*
X97790000Y-129983498D01*
X98018087Y-129963543D01*
X98239243Y-129904284D01*
X98446749Y-129807523D01*
X98634300Y-129676198D01*
X98796198Y-129514300D01*
X98927523Y-129326749D01*
X98947617Y-129283655D01*
X98993375Y-129231479D01*
X99060000Y-129212059D01*
X99126625Y-129231479D01*
X99172382Y-129283655D01*
X99192477Y-129326749D01*
X99323802Y-129514300D01*
X99485700Y-129676198D01*
X99673251Y-129807523D01*
X99673254Y-129807524D01*
X99673255Y-129807525D01*
X99764187Y-129849927D01*
X99880757Y-129904284D01*
X100101913Y-129963543D01*
X100330000Y-129983498D01*
X100558087Y-129963543D01*
X100779243Y-129904284D01*
X100986749Y-129807523D01*
X101174300Y-129676198D01*
X101336198Y-129514300D01*
X101467523Y-129326749D01*
X101487617Y-129283655D01*
X101533375Y-129231479D01*
X101600000Y-129212059D01*
X101666625Y-129231479D01*
X101712382Y-129283655D01*
X101732477Y-129326749D01*
X101863802Y-129514300D01*
X102025700Y-129676198D01*
X102054625Y-129696452D01*
X102093489Y-129740768D01*
X102107500Y-129798025D01*
X102107500Y-131712800D01*
X102098061Y-131760253D01*
X102071183Y-131800478D01*
X101900756Y-131970905D01*
X101857127Y-132014534D01*
X101811856Y-132043374D01*
X101758639Y-132050380D01*
X101600000Y-132036501D01*
X101371915Y-132056456D01*
X101150753Y-132115717D01*
X100943255Y-132212474D01*
X100875870Y-132259658D01*
X100773064Y-132331644D01*
X100755696Y-132343805D01*
X100593805Y-132505696D01*
X100462474Y-132693255D01*
X100365717Y-132900753D01*
X100306456Y-133121915D01*
X100286501Y-133350000D01*
X100306456Y-133578084D01*
X100306457Y-133578087D01*
X100364934Y-133796326D01*
X100365717Y-133799246D01*
X100462474Y-134006744D01*
X100462476Y-134006746D01*
X100462477Y-134006749D01*
X100593802Y-134194300D01*
X100755700Y-134356198D01*
X100784625Y-134376452D01*
X100823489Y-134420768D01*
X100837500Y-134478025D01*
X100837500Y-134506800D01*
X100828061Y-134554253D01*
X100801181Y-134594481D01*
X97764481Y-137631181D01*
X97724253Y-137658061D01*
X97676800Y-137667500D01*
X95108025Y-137667500D01*
X95050768Y-137653489D01*
X95006452Y-137614625D01*
X94986198Y-137585700D01*
X94824300Y-137423802D01*
X94636749Y-137292477D01*
X94636746Y-137292476D01*
X94636744Y-137292474D01*
X94429246Y-137195717D01*
X94429243Y-137195716D01*
X94270423Y-137153160D01*
X94208084Y-137136456D01*
X93979999Y-137116501D01*
X93751915Y-137136456D01*
X93530753Y-137195717D01*
X93323255Y-137292474D01*
X93323250Y-137292477D01*
X93323251Y-137292477D01*
X93213333Y-137369443D01*
X93135696Y-137423805D01*
X92973805Y-137585696D01*
X92973802Y-137585699D01*
X92973802Y-137585700D01*
X92923134Y-137658061D01*
X92842474Y-137773255D01*
X92745717Y-137980753D01*
X92686456Y-138201915D01*
X92666501Y-138430000D01*
X92686456Y-138658084D01*
X92745717Y-138879246D01*
X92842474Y-139086744D01*
X92842476Y-139086746D01*
X92842477Y-139086749D01*
X92973802Y-139274300D01*
X93135700Y-139436198D01*
X93323251Y-139567523D01*
X93530757Y-139664284D01*
X93751913Y-139723543D01*
X93980000Y-139743498D01*
X94208087Y-139723543D01*
X94429243Y-139664284D01*
X94636749Y-139567523D01*
X94824300Y-139436198D01*
X94986198Y-139274300D01*
X95006452Y-139245374D01*
X95050768Y-139206511D01*
X95108025Y-139192500D01*
X97979418Y-139192500D01*
X97997388Y-139193809D01*
X98001082Y-139194350D01*
X98021672Y-139197366D01*
X98071895Y-139192972D01*
X98082703Y-139192500D01*
X98088412Y-139192500D01*
X98119752Y-139188836D01*
X98123280Y-139188476D01*
X98199240Y-139181831D01*
X98199243Y-139181829D01*
X98200363Y-139181732D01*
X98219984Y-139177382D01*
X98221037Y-139176998D01*
X98221042Y-139176998D01*
X98292757Y-139150895D01*
X98295991Y-139149771D01*
X98368440Y-139125765D01*
X98368447Y-139125760D01*
X98369514Y-139125407D01*
X98387598Y-139116653D01*
X98394848Y-139111884D01*
X98452274Y-139074113D01*
X98455254Y-139072215D01*
X98520149Y-139032188D01*
X98520148Y-139032188D01*
X98521106Y-139031598D01*
X98536687Y-139018905D01*
X98537458Y-139018087D01*
X98537462Y-139018085D01*
X98589820Y-138962587D01*
X98592266Y-138960069D01*
X99122335Y-138430000D01*
X102826501Y-138430000D01*
X102846456Y-138658084D01*
X102905717Y-138879246D01*
X103002474Y-139086744D01*
X103002476Y-139086746D01*
X103002477Y-139086749D01*
X103133802Y-139274300D01*
X103295700Y-139436198D01*
X103483251Y-139567523D01*
X103690757Y-139664284D01*
X103911913Y-139723543D01*
X104140000Y-139743498D01*
X104368087Y-139723543D01*
X104589243Y-139664284D01*
X104796749Y-139567523D01*
X104984300Y-139436198D01*
X105146198Y-139274300D01*
X105277523Y-139086749D01*
X105374284Y-138879243D01*
X105433543Y-138658087D01*
X105453498Y-138430000D01*
X105433543Y-138201913D01*
X105374284Y-137980757D01*
X105277523Y-137773251D01*
X105146198Y-137585700D01*
X104984300Y-137423802D01*
X104964589Y-137410000D01*
X109159364Y-137410000D01*
X109216569Y-137623492D01*
X109316399Y-137837576D01*
X109451893Y-138031081D01*
X109618918Y-138198106D01*
X109812423Y-138333600D01*
X110026507Y-138433430D01*
X110239999Y-138490635D01*
X110240000Y-138490636D01*
X110240000Y-137410000D01*
X110740000Y-137410000D01*
X110740000Y-138490635D01*
X110953492Y-138433430D01*
X111167576Y-138333600D01*
X111361081Y-138198106D01*
X111528106Y-138031081D01*
X111663600Y-137837576D01*
X111763430Y-137623492D01*
X111820636Y-137410000D01*
X110740000Y-137410000D01*
X110240000Y-137410000D01*
X109159364Y-137410000D01*
X104964589Y-137410000D01*
X104796749Y-137292477D01*
X104796746Y-137292476D01*
X104796744Y-137292474D01*
X104589246Y-137195717D01*
X104589243Y-137195716D01*
X104430423Y-137153160D01*
X104368084Y-137136456D01*
X104139999Y-137116501D01*
X103911915Y-137136456D01*
X103690753Y-137195717D01*
X103483255Y-137292474D01*
X103483250Y-137292477D01*
X103483251Y-137292477D01*
X103373333Y-137369443D01*
X103295696Y-137423805D01*
X103133805Y-137585696D01*
X103133802Y-137585699D01*
X103133802Y-137585700D01*
X103083134Y-137658061D01*
X103002474Y-137773255D01*
X102905717Y-137980753D01*
X102846456Y-138201915D01*
X102826501Y-138430000D01*
X99122335Y-138430000D01*
X102093504Y-135458832D01*
X102107129Y-135447057D01*
X102126822Y-135432398D01*
X102159239Y-135393762D01*
X102166527Y-135385809D01*
X102170573Y-135381765D01*
X102190151Y-135357002D01*
X102192355Y-135354297D01*
X102241396Y-135295853D01*
X102241398Y-135295847D01*
X102242126Y-135294981D01*
X102252916Y-135278043D01*
X102253390Y-135277026D01*
X102253395Y-135277020D01*
X102285630Y-135207889D01*
X102287187Y-135204675D01*
X102321394Y-135136566D01*
X102321394Y-135136563D01*
X102321902Y-135135553D01*
X102328494Y-135116588D01*
X102328723Y-135115477D01*
X102328725Y-135115474D01*
X102344146Y-135040781D01*
X102344924Y-135037279D01*
X102362500Y-134963123D01*
X102362500Y-134963120D01*
X102362758Y-134962031D01*
X102364801Y-134942038D01*
X102364768Y-134940912D01*
X102364769Y-134940909D01*
X102362551Y-134864710D01*
X102362500Y-134861106D01*
X102362500Y-134619999D01*
X109126843Y-134619999D01*
X109145435Y-134844363D01*
X109145435Y-134844366D01*
X109145436Y-134844368D01*
X109195180Y-135040803D01*
X109200705Y-135062618D01*
X109291138Y-135268788D01*
X109291140Y-135268791D01*
X109414278Y-135457268D01*
X109566760Y-135622906D01*
X109744424Y-135761189D01*
X109787697Y-135784607D01*
X109833336Y-135827156D01*
X109852475Y-135886545D01*
X109840267Y-135947737D01*
X109799803Y-135995236D01*
X109618918Y-136121893D01*
X109451890Y-136288921D01*
X109316400Y-136482421D01*
X109216569Y-136696507D01*
X109159364Y-136909999D01*
X109159364Y-136910000D01*
X111820636Y-136910000D01*
X111820635Y-136909999D01*
X111763430Y-136696507D01*
X111663599Y-136482421D01*
X111528109Y-136288921D01*
X111361081Y-136121893D01*
X111180197Y-135995236D01*
X111139733Y-135947737D01*
X111127525Y-135886545D01*
X111146664Y-135827156D01*
X111192302Y-135784607D01*
X111235576Y-135761189D01*
X111413240Y-135622906D01*
X111565722Y-135457268D01*
X111660839Y-135311679D01*
X111705631Y-135270445D01*
X111764649Y-135255500D01*
X117637406Y-135255500D01*
X117684859Y-135264939D01*
X117725087Y-135291819D01*
X118030365Y-135597097D01*
X118062235Y-135651860D01*
X118062890Y-135715218D01*
X118035435Y-135823636D01*
X118016843Y-136047999D01*
X118035435Y-136272363D01*
X118090705Y-136490618D01*
X118181138Y-136696788D01*
X118181140Y-136696791D01*
X118304278Y-136885268D01*
X118456760Y-137050906D01*
X118634424Y-137189189D01*
X118832426Y-137296342D01*
X119045365Y-137369444D01*
X119267431Y-137406500D01*
X119492569Y-137406500D01*
X119714635Y-137369444D01*
X119927574Y-137296342D01*
X120125576Y-137189189D01*
X120303240Y-137050906D01*
X120455722Y-136885268D01*
X120578860Y-136696791D01*
X120669296Y-136490616D01*
X120724564Y-136272368D01*
X120743156Y-136048000D01*
X120724564Y-135823632D01*
X120669296Y-135605384D01*
X120592616Y-135430571D01*
X120578861Y-135399211D01*
X120575313Y-135393780D01*
X120455722Y-135210732D01*
X120303240Y-135045094D01*
X120125576Y-134906811D01*
X120089067Y-134887053D01*
X120041563Y-134841474D01*
X120024086Y-134778000D01*
X120041563Y-134714526D01*
X120089067Y-134668946D01*
X120125576Y-134649189D01*
X120303240Y-134510906D01*
X120455722Y-134345268D01*
X120578860Y-134156791D01*
X120669296Y-133950616D01*
X120724564Y-133732368D01*
X120743156Y-133508000D01*
X120724564Y-133283632D01*
X120669296Y-133065384D01*
X120578860Y-132859209D01*
X120455722Y-132670732D01*
X120303240Y-132505094D01*
X120125576Y-132366811D01*
X120089067Y-132347053D01*
X120041563Y-132301474D01*
X120024086Y-132238000D01*
X120041563Y-132174526D01*
X120089067Y-132128946D01*
X120125576Y-132109189D01*
X120303240Y-131970906D01*
X120455722Y-131805268D01*
X120578860Y-131616791D01*
X120669296Y-131410616D01*
X120724564Y-131192368D01*
X120743156Y-130968000D01*
X120724564Y-130743632D01*
X120669296Y-130525384D01*
X120578860Y-130319209D01*
X120455722Y-130130732D01*
X120303240Y-129965094D01*
X120125576Y-129826811D01*
X120089067Y-129807053D01*
X120041563Y-129761474D01*
X120024086Y-129698000D01*
X120041563Y-129634526D01*
X120089067Y-129588946D01*
X120125576Y-129569189D01*
X120303240Y-129430906D01*
X120455722Y-129265268D01*
X120578860Y-129076791D01*
X120669296Y-128870616D01*
X120724564Y-128652368D01*
X120743156Y-128428000D01*
X120724564Y-128203632D01*
X120669296Y-127985384D01*
X120578860Y-127779209D01*
X120455722Y-127590732D01*
X120303240Y-127425094D01*
X120153469Y-127308521D01*
X120125575Y-127286810D01*
X120082302Y-127263392D01*
X120036663Y-127220842D01*
X120017525Y-127161452D01*
X120029734Y-127100261D01*
X120070198Y-127052763D01*
X120251078Y-126926109D01*
X120418106Y-126759081D01*
X120553600Y-126565576D01*
X120653430Y-126351492D01*
X120710636Y-126138000D01*
X118049364Y-126138000D01*
X118106569Y-126351492D01*
X118206399Y-126565576D01*
X118341893Y-126759081D01*
X118508918Y-126926106D01*
X118689802Y-127052763D01*
X118730265Y-127100261D01*
X118742474Y-127161452D01*
X118723336Y-127220842D01*
X118677698Y-127263392D01*
X118634422Y-127286812D01*
X118456760Y-127425094D01*
X118304279Y-127590730D01*
X118181138Y-127779211D01*
X118090705Y-127985381D01*
X118035435Y-128203636D01*
X118016843Y-128428000D01*
X118035435Y-128652363D01*
X118035435Y-128652366D01*
X118035436Y-128652368D01*
X118050693Y-128712618D01*
X118090705Y-128870618D01*
X118181138Y-129076788D01*
X118181140Y-129076791D01*
X118304278Y-129265268D01*
X118456760Y-129430906D01*
X118634424Y-129569189D01*
X118634426Y-129569190D01*
X118670931Y-129588946D01*
X118718436Y-129634527D01*
X118735913Y-129698000D01*
X118718436Y-129761473D01*
X118670931Y-129807054D01*
X118634426Y-129826809D01*
X118456757Y-129965096D01*
X118304278Y-130130730D01*
X118297376Y-130141296D01*
X118258139Y-130179335D01*
X118206359Y-130196813D01*
X118152095Y-130190333D01*
X118105887Y-130161155D01*
X115073544Y-127128812D01*
X111999658Y-124054925D01*
X111986575Y-124038596D01*
X111934718Y-123989898D01*
X111931921Y-123987187D01*
X111912095Y-123967361D01*
X111908796Y-123964802D01*
X111899917Y-123957218D01*
X111867509Y-123926784D01*
X111859793Y-123922543D01*
X111849531Y-123916901D01*
X111833274Y-123906222D01*
X111817067Y-123893650D01*
X111776254Y-123875988D01*
X111765769Y-123870852D01*
X111744466Y-123859141D01*
X111712698Y-123834159D01*
X111690649Y-123800288D01*
X111688860Y-123796209D01*
X111565722Y-123607732D01*
X111413240Y-123442094D01*
X111235576Y-123303811D01*
X111235575Y-123303810D01*
X111199067Y-123284053D01*
X111151562Y-123238471D01*
X111134086Y-123174997D01*
X111151564Y-123111523D01*
X111199067Y-123065946D01*
X111235576Y-123046189D01*
X111413240Y-122907906D01*
X111565722Y-122742268D01*
X111688860Y-122553791D01*
X111779296Y-122347616D01*
X111834564Y-122129368D01*
X111853156Y-121905000D01*
X111834564Y-121680632D01*
X111779296Y-121462384D01*
X111688860Y-121256209D01*
X111565722Y-121067732D01*
X111413240Y-120902094D01*
X111235576Y-120763811D01*
X111037574Y-120656658D01*
X111037573Y-120656657D01*
X111037572Y-120656657D01*
X110824636Y-120583556D01*
X110602569Y-120546500D01*
X110377431Y-120546500D01*
X110155363Y-120583556D01*
X109942427Y-120656657D01*
X109744424Y-120763811D01*
X109566760Y-120902094D01*
X109414279Y-121067730D01*
X109291138Y-121256211D01*
X109200705Y-121462381D01*
X109200704Y-121462384D01*
X109163525Y-121609201D01*
X109145435Y-121680636D01*
X109126843Y-121905000D01*
X109145435Y-122129363D01*
X109145435Y-122129366D01*
X109145436Y-122129368D01*
X109200065Y-122345094D01*
X109200705Y-122347618D01*
X109291138Y-122553788D01*
X109301450Y-122569572D01*
X109414278Y-122742268D01*
X109566760Y-122907906D01*
X109744424Y-123046189D01*
X109780930Y-123065945D01*
X109828435Y-123111524D01*
X109845913Y-123174997D01*
X109828437Y-123238471D01*
X109780933Y-123284052D01*
X109744427Y-123303809D01*
X109744425Y-123303810D01*
X109744424Y-123303811D01*
X109667356Y-123363796D01*
X109566760Y-123442094D01*
X109414279Y-123607730D01*
X109291138Y-123796211D01*
X109203157Y-123996791D01*
X109200704Y-124002384D01*
X109187399Y-124054925D01*
X109145435Y-124220636D01*
X109126843Y-124445000D01*
X109145435Y-124669363D01*
X109145435Y-124669366D01*
X109145436Y-124669368D01*
X109193437Y-124858921D01*
X109200705Y-124887618D01*
X109291138Y-125093788D01*
X109414281Y-125282273D01*
X109559489Y-125440009D01*
X109588263Y-125492761D01*
X109588856Y-125552848D01*
X109561129Y-125606158D01*
X109511595Y-125640173D01*
X109393795Y-125684111D01*
X109276738Y-125771738D01*
X109189110Y-125888796D01*
X109138011Y-126025794D01*
X109131500Y-126086366D01*
X109131500Y-127883634D01*
X109138011Y-127944205D01*
X109189110Y-128081203D01*
X109276738Y-128198261D01*
X109393796Y-128285889D01*
X109530794Y-128336988D01*
X109530797Y-128336988D01*
X109530799Y-128336989D01*
X109591362Y-128343500D01*
X111388634Y-128343500D01*
X111388638Y-128343500D01*
X111449201Y-128336989D01*
X111449203Y-128336988D01*
X111449205Y-128336988D01*
X111527124Y-128307924D01*
X111586204Y-128285889D01*
X111703261Y-128198261D01*
X111790889Y-128081204D01*
X111820093Y-128002905D01*
X111841988Y-127944205D01*
X111841988Y-127944203D01*
X111841989Y-127944201D01*
X111848500Y-127883638D01*
X111848500Y-126086362D01*
X111841989Y-126025799D01*
X111841988Y-126025798D01*
X111840324Y-126010312D01*
X111842380Y-126010090D01*
X111838562Y-125965641D01*
X111867888Y-125905995D01*
X111923801Y-125870061D01*
X111990239Y-125868163D01*
X112048113Y-125900846D01*
X117505341Y-131358074D01*
X117518429Y-131374409D01*
X117570280Y-131423100D01*
X117573078Y-131425811D01*
X117592906Y-131445639D01*
X117596202Y-131448195D01*
X117605075Y-131455773D01*
X117637494Y-131486217D01*
X117655464Y-131496096D01*
X117671723Y-131506775D01*
X117687933Y-131519349D01*
X117728756Y-131537014D01*
X117739223Y-131542143D01*
X117778197Y-131563569D01*
X117798062Y-131568669D01*
X117816462Y-131574968D01*
X117835292Y-131583117D01*
X117879219Y-131590073D01*
X117890646Y-131592440D01*
X117933718Y-131603500D01*
X117954226Y-131603500D01*
X117973624Y-131605026D01*
X117993879Y-131608235D01*
X118038150Y-131604050D01*
X118049820Y-131603500D01*
X118105351Y-131603500D01*
X118164369Y-131618445D01*
X118209160Y-131659679D01*
X118304278Y-131805268D01*
X118456760Y-131970906D01*
X118634424Y-132109189D01*
X118670930Y-132128945D01*
X118718435Y-132174524D01*
X118735913Y-132237997D01*
X118718437Y-132301471D01*
X118670933Y-132347052D01*
X118634427Y-132366809D01*
X118456760Y-132505094D01*
X118304279Y-132670730D01*
X118181138Y-132859211D01*
X118102187Y-133039205D01*
X118090704Y-133065384D01*
X118035436Y-133283632D01*
X118035435Y-133283636D01*
X118016843Y-133508000D01*
X118035435Y-133732365D01*
X118059618Y-133827864D01*
X118061339Y-133880883D01*
X118040746Y-133929770D01*
X118001607Y-133965577D01*
X117951086Y-133981752D01*
X117927854Y-133983949D01*
X117916180Y-133984500D01*
X111764649Y-133984500D01*
X111705631Y-133969555D01*
X111660840Y-133928321D01*
X111565720Y-133782729D01*
X111420510Y-133624990D01*
X111391736Y-133572238D01*
X111391143Y-133512151D01*
X111418870Y-133458840D01*
X111468401Y-133424827D01*
X111586204Y-133380889D01*
X111703261Y-133293261D01*
X111790889Y-133176204D01*
X111832223Y-133065384D01*
X111841988Y-133039205D01*
X111841988Y-133039203D01*
X111841989Y-133039201D01*
X111848500Y-132978638D01*
X111848500Y-131181362D01*
X111841989Y-131120799D01*
X111841988Y-131120797D01*
X111841988Y-131120794D01*
X111790889Y-130983796D01*
X111703261Y-130866738D01*
X111586203Y-130779110D01*
X111449205Y-130728011D01*
X111418919Y-130724755D01*
X111388638Y-130721500D01*
X109591362Y-130721500D01*
X109564445Y-130724393D01*
X109530794Y-130728011D01*
X109393796Y-130779110D01*
X109276738Y-130866738D01*
X109189110Y-130983796D01*
X109138011Y-131120794D01*
X109131500Y-131181366D01*
X109131500Y-132978634D01*
X109138011Y-133039205D01*
X109189110Y-133176203D01*
X109276738Y-133293261D01*
X109393793Y-133380887D01*
X109393796Y-133380889D01*
X109511596Y-133424826D01*
X109561129Y-133458840D01*
X109588856Y-133512151D01*
X109588263Y-133572237D01*
X109559490Y-133624990D01*
X109414279Y-133782730D01*
X109291138Y-133971211D01*
X109200705Y-134177381D01*
X109200704Y-134177384D01*
X109196420Y-134194303D01*
X109145435Y-134395636D01*
X109126843Y-134619999D01*
X102362500Y-134619999D01*
X102362500Y-134478025D01*
X102376511Y-134420768D01*
X102415374Y-134376452D01*
X102444300Y-134356198D01*
X102606198Y-134194300D01*
X102737523Y-134006749D01*
X102834284Y-133799243D01*
X102893543Y-133578087D01*
X102913498Y-133350000D01*
X102899618Y-133191357D01*
X102906624Y-133138142D01*
X102935463Y-133092873D01*
X103363504Y-132664832D01*
X103377129Y-132653057D01*
X103396822Y-132638398D01*
X103429239Y-132599762D01*
X103436527Y-132591809D01*
X103440573Y-132587765D01*
X103460151Y-132563002D01*
X103462355Y-132560297D01*
X103511396Y-132501853D01*
X103511398Y-132501847D01*
X103512126Y-132500981D01*
X103522916Y-132484043D01*
X103523390Y-132483026D01*
X103523395Y-132483020D01*
X103555630Y-132413889D01*
X103557187Y-132410675D01*
X103589139Y-132347055D01*
X103591394Y-132342566D01*
X103591394Y-132342563D01*
X103591902Y-132341553D01*
X103598494Y-132322588D01*
X103598723Y-132321477D01*
X103598725Y-132321474D01*
X103614146Y-132246781D01*
X103614924Y-132243279D01*
X103632500Y-132169123D01*
X103632500Y-132169120D01*
X103632758Y-132168031D01*
X103634801Y-132148038D01*
X103634768Y-132146912D01*
X103634769Y-132146909D01*
X103632551Y-132070710D01*
X103632500Y-132067106D01*
X103632500Y-129798025D01*
X103646511Y-129740768D01*
X103685374Y-129696452D01*
X103714300Y-129676198D01*
X103876198Y-129514300D01*
X104007523Y-129326749D01*
X104104284Y-129119243D01*
X104163543Y-128898087D01*
X104178500Y-128727127D01*
X104178500Y-127812873D01*
X104163543Y-127641913D01*
X104104284Y-127420757D01*
X104007523Y-127213251D01*
X103876198Y-127025700D01*
X103714300Y-126863802D01*
X103685374Y-126843547D01*
X103646511Y-126799232D01*
X103632500Y-126741975D01*
X103632500Y-126097199D01*
X103641939Y-126049746D01*
X103668819Y-126009518D01*
X109499519Y-120178819D01*
X109539747Y-120151939D01*
X109587200Y-120142500D01*
X117584801Y-120142500D01*
X117632254Y-120151939D01*
X117672482Y-120178819D01*
X117985181Y-120491518D01*
X118012061Y-120531746D01*
X118021500Y-120579199D01*
X118021500Y-121706634D01*
X118028011Y-121767205D01*
X118079110Y-121904203D01*
X118166738Y-122021261D01*
X118283793Y-122108887D01*
X118283796Y-122108889D01*
X118401596Y-122152826D01*
X118451129Y-122186840D01*
X118478856Y-122240151D01*
X118478263Y-122300237D01*
X118449490Y-122352990D01*
X118304279Y-122510730D01*
X118181138Y-122699211D01*
X118090705Y-122905381D01*
X118090704Y-122905384D01*
X118081938Y-122939999D01*
X118035435Y-123123636D01*
X118016843Y-123347999D01*
X118035435Y-123572363D01*
X118035435Y-123572366D01*
X118035436Y-123572368D01*
X118090704Y-123790616D01*
X118099393Y-123810426D01*
X118181138Y-123996788D01*
X118181140Y-123996791D01*
X118304278Y-124185268D01*
X118456760Y-124350906D01*
X118634424Y-124489189D01*
X118677697Y-124512607D01*
X118723336Y-124555156D01*
X118742475Y-124614545D01*
X118730267Y-124675737D01*
X118689803Y-124723236D01*
X118508918Y-124849893D01*
X118341890Y-125016921D01*
X118206400Y-125210421D01*
X118106569Y-125424507D01*
X118049364Y-125637999D01*
X118049364Y-125638000D01*
X120710636Y-125638000D01*
X120710635Y-125637999D01*
X120653430Y-125424507D01*
X120553599Y-125210421D01*
X120418109Y-125016921D01*
X120251081Y-124849893D01*
X120070197Y-124723236D01*
X120029733Y-124675737D01*
X120017525Y-124614545D01*
X120036664Y-124555156D01*
X120082302Y-124512607D01*
X120125576Y-124489189D01*
X120303240Y-124350906D01*
X120455722Y-124185268D01*
X120578860Y-123996791D01*
X120669296Y-123790616D01*
X120724564Y-123572368D01*
X120743156Y-123348000D01*
X120724564Y-123123632D01*
X120669296Y-122905384D01*
X120578860Y-122699209D01*
X120455722Y-122510732D01*
X120455721Y-122510731D01*
X120455718Y-122510726D01*
X120310510Y-122352990D01*
X120281736Y-122300238D01*
X120281143Y-122240151D01*
X120308870Y-122186840D01*
X120358401Y-122152827D01*
X120476204Y-122108889D01*
X120593261Y-122021261D01*
X120680889Y-121904204D01*
X120731989Y-121767201D01*
X120738500Y-121706638D01*
X120738500Y-119909362D01*
X120731989Y-119848799D01*
X120731988Y-119848797D01*
X120731988Y-119848794D01*
X120680889Y-119711796D01*
X120593261Y-119594738D01*
X120476203Y-119507110D01*
X120339205Y-119456011D01*
X120308919Y-119452755D01*
X120278638Y-119449500D01*
X120278634Y-119449500D01*
X119151200Y-119449500D01*
X119103747Y-119440061D01*
X119063519Y-119413181D01*
X118536837Y-118886499D01*
X118525055Y-118872866D01*
X118510397Y-118853177D01*
X118471773Y-118820768D01*
X118463793Y-118813455D01*
X118459766Y-118809428D01*
X118459765Y-118809427D01*
X118435017Y-118789859D01*
X118432273Y-118787624D01*
X118373853Y-118738604D01*
X118373851Y-118738603D01*
X118372985Y-118737876D01*
X118356036Y-118727078D01*
X118285914Y-118694380D01*
X118282668Y-118692808D01*
X118213565Y-118658103D01*
X118194576Y-118651502D01*
X118118841Y-118635864D01*
X118115323Y-118635084D01*
X118040032Y-118617241D01*
X118020038Y-118615198D01*
X117952705Y-118617157D01*
X117942710Y-118617448D01*
X117939106Y-118617500D01*
X109284582Y-118617500D01*
X109266612Y-118616191D01*
X109253241Y-118614232D01*
X109242328Y-118612634D01*
X109242327Y-118612634D01*
X109192106Y-118617028D01*
X109181299Y-118617500D01*
X109175587Y-118617500D01*
X109144256Y-118621161D01*
X109140674Y-118621527D01*
X109063643Y-118628267D01*
X109044009Y-118632619D01*
X108971325Y-118659073D01*
X108967922Y-118660256D01*
X108894497Y-118684586D01*
X108876395Y-118693351D01*
X108811765Y-118735858D01*
X108808727Y-118737793D01*
X108742902Y-118778396D01*
X108727303Y-118791103D01*
X108674229Y-118847357D01*
X108671717Y-118849943D01*
X102376500Y-125145160D01*
X102362870Y-125156939D01*
X102343177Y-125171600D01*
X102310762Y-125210230D01*
X102303471Y-125218189D01*
X102299428Y-125222232D01*
X102279859Y-125246980D01*
X102277586Y-125249770D01*
X102227882Y-125309006D01*
X102217074Y-125325972D01*
X102184392Y-125396057D01*
X102182822Y-125399301D01*
X102148102Y-125468436D01*
X102141501Y-125487429D01*
X102125864Y-125563158D01*
X102125084Y-125566676D01*
X102107241Y-125641967D01*
X102105198Y-125661961D01*
X102107448Y-125739288D01*
X102107500Y-125742894D01*
X102107500Y-126741975D01*
X102093489Y-126799232D01*
X102054625Y-126843547D01*
X102025700Y-126863802D01*
X102025696Y-126863805D01*
X101863805Y-127025696D01*
X101863802Y-127025699D01*
X101863802Y-127025700D01*
X101756000Y-127179658D01*
X101732476Y-127213253D01*
X101712382Y-127256345D01*
X101666625Y-127308521D01*
X101600000Y-127327940D01*
X101533375Y-127308521D01*
X101487618Y-127256345D01*
X101486214Y-127253334D01*
X101467523Y-127213251D01*
X101336198Y-127025700D01*
X101174300Y-126863802D01*
X100986749Y-126732477D01*
X100986746Y-126732476D01*
X100986744Y-126732474D01*
X100779246Y-126635717D01*
X100779243Y-126635716D01*
X100649984Y-126601081D01*
X100558084Y-126576456D01*
X100330000Y-126556501D01*
X100101915Y-126576456D01*
X99880753Y-126635717D01*
X99673255Y-126732474D01*
X99485696Y-126863805D01*
X99323805Y-127025696D01*
X99323802Y-127025699D01*
X99323802Y-127025700D01*
X99216000Y-127179658D01*
X99192476Y-127213253D01*
X99172382Y-127256345D01*
X99126625Y-127308521D01*
X99060000Y-127327940D01*
X98993375Y-127308521D01*
X98947618Y-127256345D01*
X98946214Y-127253334D01*
X98927523Y-127213251D01*
X98796198Y-127025700D01*
X98634300Y-126863802D01*
X98446749Y-126732477D01*
X98446746Y-126732476D01*
X98446744Y-126732474D01*
X98239246Y-126635717D01*
X98239243Y-126635716D01*
X98109984Y-126601081D01*
X98018084Y-126576456D01*
X97790000Y-126556501D01*
X97561915Y-126576456D01*
X97340753Y-126635717D01*
X97133255Y-126732474D01*
X96945696Y-126863805D01*
X96783805Y-127025696D01*
X96783802Y-127025699D01*
X96783802Y-127025700D01*
X96676000Y-127179658D01*
X96652476Y-127213253D01*
X96632382Y-127256345D01*
X96586625Y-127308521D01*
X96520000Y-127327940D01*
X96453375Y-127308521D01*
X96407618Y-127256345D01*
X96406214Y-127253334D01*
X96387523Y-127213251D01*
X96256198Y-127025700D01*
X96094300Y-126863802D01*
X95906749Y-126732477D01*
X95906746Y-126732476D01*
X95906744Y-126732474D01*
X95699246Y-126635717D01*
X95699243Y-126635716D01*
X95569984Y-126601081D01*
X95478084Y-126576456D01*
X95250000Y-126556501D01*
X95021915Y-126576456D01*
X94800753Y-126635717D01*
X94593255Y-126732474D01*
X94405696Y-126863805D01*
X94243805Y-127025696D01*
X94243802Y-127025699D01*
X94243802Y-127025700D01*
X94136000Y-127179658D01*
X94112476Y-127213253D01*
X94092382Y-127256345D01*
X94046625Y-127308521D01*
X93980000Y-127327940D01*
X93913375Y-127308521D01*
X93867618Y-127256345D01*
X93866214Y-127253334D01*
X93847523Y-127213251D01*
X93716198Y-127025700D01*
X93554300Y-126863802D01*
X93366749Y-126732477D01*
X93366746Y-126732476D01*
X93366744Y-126732474D01*
X93159246Y-126635717D01*
X93159243Y-126635716D01*
X93029984Y-126601081D01*
X92938084Y-126576456D01*
X92710000Y-126556501D01*
X92481915Y-126576456D01*
X92260753Y-126635717D01*
X92053255Y-126732474D01*
X91865696Y-126863805D01*
X91703805Y-127025696D01*
X91703802Y-127025699D01*
X91703802Y-127025700D01*
X91596000Y-127179658D01*
X91572476Y-127213253D01*
X91552382Y-127256345D01*
X91506625Y-127308521D01*
X91440000Y-127327940D01*
X91373375Y-127308521D01*
X91327618Y-127256345D01*
X91326214Y-127253334D01*
X91307523Y-127213251D01*
X91176198Y-127025700D01*
X91014300Y-126863802D01*
X90826749Y-126732477D01*
X90826746Y-126732476D01*
X90826744Y-126732474D01*
X90619246Y-126635717D01*
X90619243Y-126635716D01*
X90489984Y-126601081D01*
X90398084Y-126576456D01*
X90170000Y-126556501D01*
X89941915Y-126576456D01*
X89720753Y-126635717D01*
X89513255Y-126732474D01*
X89325696Y-126863805D01*
X89163805Y-127025696D01*
X89163802Y-127025699D01*
X89163802Y-127025700D01*
X89056000Y-127179658D01*
X89032476Y-127213253D01*
X89012382Y-127256345D01*
X88966625Y-127308521D01*
X88900000Y-127327940D01*
X88833375Y-127308521D01*
X88787618Y-127256345D01*
X88786214Y-127253334D01*
X88767523Y-127213251D01*
X88636198Y-127025700D01*
X88474300Y-126863802D01*
X88286749Y-126732477D01*
X88286746Y-126732476D01*
X88286744Y-126732474D01*
X88079246Y-126635717D01*
X88079243Y-126635716D01*
X87949984Y-126601081D01*
X87858084Y-126576456D01*
X87630000Y-126556501D01*
X87401915Y-126576456D01*
X87180753Y-126635717D01*
X86973255Y-126732474D01*
X86785696Y-126863805D01*
X86623805Y-127025696D01*
X86492474Y-127213255D01*
X86395717Y-127420753D01*
X86336456Y-127641915D01*
X86321500Y-127812871D01*
X86321500Y-128727129D01*
X85471500Y-128727129D01*
X85471500Y-126552594D01*
X85480939Y-126505141D01*
X85507819Y-126464913D01*
X88110914Y-123861819D01*
X88151142Y-123834939D01*
X88198595Y-123825500D01*
X100246150Y-123825500D01*
X100266941Y-123827795D01*
X100269717Y-123827707D01*
X100269719Y-123827708D01*
X100338043Y-123825561D01*
X100341939Y-123825500D01*
X100369979Y-123825500D01*
X100369983Y-123825500D01*
X100374120Y-123824977D01*
X100385757Y-123824061D01*
X100430205Y-123822665D01*
X100449901Y-123816942D01*
X100468946Y-123812997D01*
X100489299Y-123810427D01*
X100530659Y-123794051D01*
X100541679Y-123790278D01*
X100584393Y-123777869D01*
X100602044Y-123767429D01*
X100619512Y-123758871D01*
X100638588Y-123751319D01*
X100674582Y-123725166D01*
X100684315Y-123718774D01*
X100722598Y-123696134D01*
X100737100Y-123681631D01*
X100751888Y-123669000D01*
X100768487Y-123656942D01*
X100796845Y-123622662D01*
X100804688Y-123614042D01*
X102023912Y-122394819D01*
X102064141Y-122367939D01*
X102111594Y-122358500D01*
X103718634Y-122358500D01*
X103718638Y-122358500D01*
X103779201Y-122351989D01*
X103779203Y-122351988D01*
X103779205Y-122351988D01*
X103867859Y-122318921D01*
X103916204Y-122300889D01*
X104033261Y-122213261D01*
X104120889Y-122096204D01*
X104157062Y-121999221D01*
X104171988Y-121959205D01*
X104171988Y-121959203D01*
X104171989Y-121959201D01*
X104178500Y-121898638D01*
X104178500Y-119401362D01*
X104171989Y-119340799D01*
X104171988Y-119340797D01*
X104171988Y-119340794D01*
X104120889Y-119203796D01*
X104033261Y-119086738D01*
X103916203Y-118999110D01*
X103779205Y-118948011D01*
X103748919Y-118944755D01*
X103718638Y-118941500D01*
X102021362Y-118941500D01*
X101994445Y-118944393D01*
X101960794Y-118948011D01*
X101823796Y-118999110D01*
X101706738Y-119086738D01*
X101619110Y-119203796D01*
X101568009Y-119340799D01*
X101566429Y-119355501D01*
X101546049Y-119411422D01*
X101501959Y-119451405D01*
X101444318Y-119466237D01*
X101386405Y-119452502D01*
X101341564Y-119413364D01*
X101340204Y-119411422D01*
X101336198Y-119405700D01*
X101174300Y-119243802D01*
X100986749Y-119112477D01*
X100986746Y-119112476D01*
X100986744Y-119112474D01*
X100779246Y-119015717D01*
X100779243Y-119015716D01*
X100612840Y-118971128D01*
X100558084Y-118956456D01*
X100330000Y-118936501D01*
X100101915Y-118956456D01*
X99880753Y-119015717D01*
X99673255Y-119112474D01*
X99485696Y-119243805D01*
X99323805Y-119405696D01*
X99323802Y-119405699D01*
X99323802Y-119405700D01*
X99281414Y-119466237D01*
X99192476Y-119593253D01*
X99172382Y-119636345D01*
X99126625Y-119688521D01*
X99060000Y-119707940D01*
X98993375Y-119688521D01*
X98947618Y-119636345D01*
X98946214Y-119633334D01*
X98927523Y-119593251D01*
X98796198Y-119405700D01*
X98634300Y-119243802D01*
X98446749Y-119112477D01*
X98446746Y-119112476D01*
X98446744Y-119112474D01*
X98239246Y-119015717D01*
X98239243Y-119015716D01*
X98072840Y-118971128D01*
X98018084Y-118956456D01*
X97790000Y-118936501D01*
X97561915Y-118956456D01*
X97340753Y-119015717D01*
X97133255Y-119112474D01*
X96945696Y-119243805D01*
X96783805Y-119405696D01*
X96783802Y-119405699D01*
X96783802Y-119405700D01*
X96741414Y-119466237D01*
X96652476Y-119593253D01*
X96632382Y-119636345D01*
X96586625Y-119688521D01*
X96520000Y-119707940D01*
X96453375Y-119688521D01*
X96407618Y-119636345D01*
X96406214Y-119633334D01*
X96387523Y-119593251D01*
X96256198Y-119405700D01*
X96094300Y-119243802D01*
X95906749Y-119112477D01*
X95906746Y-119112476D01*
X95906744Y-119112474D01*
X95699246Y-119015717D01*
X95699243Y-119015716D01*
X95532840Y-118971128D01*
X95478084Y-118956456D01*
X95250000Y-118936501D01*
X95021915Y-118956456D01*
X94800753Y-119015717D01*
X94593255Y-119112474D01*
X94405696Y-119243805D01*
X94243805Y-119405696D01*
X94243802Y-119405699D01*
X94243802Y-119405700D01*
X94201414Y-119466237D01*
X94112476Y-119593253D01*
X94092382Y-119636345D01*
X94046625Y-119688521D01*
X93980000Y-119707940D01*
X93913375Y-119688521D01*
X93867618Y-119636345D01*
X93866214Y-119633334D01*
X93847523Y-119593251D01*
X93716198Y-119405700D01*
X93554300Y-119243802D01*
X93366749Y-119112477D01*
X93366746Y-119112476D01*
X93366744Y-119112474D01*
X93159246Y-119015717D01*
X93159243Y-119015716D01*
X92992840Y-118971128D01*
X92938084Y-118956456D01*
X92710000Y-118936501D01*
X92481915Y-118956456D01*
X92260753Y-119015717D01*
X92053255Y-119112474D01*
X91865696Y-119243805D01*
X91703805Y-119405696D01*
X91703802Y-119405699D01*
X91703802Y-119405700D01*
X91661414Y-119466237D01*
X91572476Y-119593253D01*
X91552382Y-119636345D01*
X91506625Y-119688521D01*
X91440000Y-119707940D01*
X91373375Y-119688521D01*
X91327618Y-119636345D01*
X91326214Y-119633334D01*
X91307523Y-119593251D01*
X91176198Y-119405700D01*
X91014300Y-119243802D01*
X90826749Y-119112477D01*
X90826746Y-119112476D01*
X90826744Y-119112474D01*
X90619246Y-119015717D01*
X90619243Y-119015716D01*
X90452840Y-118971128D01*
X90398084Y-118956456D01*
X90170000Y-118936501D01*
X89941915Y-118956456D01*
X89720753Y-119015717D01*
X89513255Y-119112474D01*
X89325696Y-119243805D01*
X89163805Y-119405696D01*
X89163802Y-119405699D01*
X89163802Y-119405700D01*
X89032477Y-119593251D01*
X89032476Y-119593253D01*
X89032474Y-119593256D01*
X89007691Y-119646402D01*
X88961934Y-119698577D01*
X88895309Y-119717996D01*
X88828684Y-119698576D01*
X88782927Y-119646400D01*
X88760132Y-119597516D01*
X88629658Y-119411180D01*
X88468819Y-119250341D01*
X88282480Y-119119865D01*
X88076326Y-119023733D01*
X87880000Y-118971128D01*
X87880000Y-122328871D01*
X87886728Y-122334034D01*
X87893615Y-122342715D01*
X87896046Y-122339078D01*
X87947725Y-122310725D01*
X88076326Y-122276266D01*
X88282480Y-122180134D01*
X88468819Y-122049658D01*
X88629658Y-121888819D01*
X88760133Y-121702481D01*
X88782927Y-121653600D01*
X88828683Y-121601423D01*
X88895309Y-121582003D01*
X88961934Y-121601422D01*
X89007692Y-121653598D01*
X89032475Y-121706746D01*
X89032476Y-121706748D01*
X89032477Y-121706749D01*
X89163802Y-121894300D01*
X89325700Y-122056198D01*
X89513251Y-122187523D01*
X89513254Y-122187524D01*
X89513255Y-122187525D01*
X89604187Y-122229927D01*
X89720757Y-122284284D01*
X89819436Y-122310725D01*
X89871115Y-122339078D01*
X89903864Y-122388090D01*
X89910281Y-122446685D01*
X89888917Y-122501624D01*
X89844599Y-122540489D01*
X89787342Y-122554500D01*
X87979819Y-122554500D01*
X87922562Y-122540489D01*
X87896310Y-122517467D01*
X87873130Y-122539861D01*
X87815139Y-122556349D01*
X87783795Y-122557334D01*
X87764097Y-122563057D01*
X87745052Y-122567001D01*
X87724700Y-122569572D01*
X87683361Y-122585939D01*
X87672317Y-122589720D01*
X87629606Y-122602130D01*
X87611950Y-122612572D01*
X87594483Y-122621129D01*
X87575415Y-122628679D01*
X87539433Y-122654820D01*
X87529676Y-122661229D01*
X87491402Y-122683865D01*
X87476901Y-122698366D01*
X87462112Y-122710996D01*
X87445514Y-122723055D01*
X87417159Y-122757330D01*
X87409298Y-122765968D01*
X84445922Y-125729343D01*
X84429593Y-125742426D01*
X84380898Y-125794281D01*
X84378190Y-125797076D01*
X84358359Y-125816907D01*
X84355798Y-125820209D01*
X84348219Y-125829082D01*
X84317781Y-125861495D01*
X84307901Y-125879467D01*
X84297224Y-125895721D01*
X84284649Y-125911932D01*
X84266986Y-125952748D01*
X84261850Y-125963232D01*
X84240430Y-126002196D01*
X84235330Y-126022061D01*
X84229029Y-126040464D01*
X84220882Y-126059290D01*
X84213926Y-126103212D01*
X84211558Y-126114650D01*
X84200500Y-126157719D01*
X84200500Y-126178226D01*
X84198973Y-126197625D01*
X84195765Y-126217877D01*
X81121750Y-126217877D01*
X81085722Y-126162732D01*
X80933240Y-125997094D01*
X80755576Y-125858811D01*
X80719067Y-125839053D01*
X80671563Y-125793474D01*
X80654086Y-125730000D01*
X80671563Y-125666526D01*
X80719067Y-125620946D01*
X80755576Y-125601189D01*
X80933240Y-125462906D01*
X81085722Y-125297268D01*
X81208860Y-125108791D01*
X81299296Y-124902616D01*
X81354564Y-124684368D01*
X81373156Y-124460000D01*
X81354564Y-124235632D01*
X81299296Y-124017384D01*
X81210181Y-123814220D01*
X81208861Y-123811211D01*
X81199059Y-123796208D01*
X81085722Y-123622732D01*
X80933240Y-123457094D01*
X80755576Y-123318811D01*
X80557574Y-123211658D01*
X80557573Y-123211657D01*
X80557572Y-123211657D01*
X80344636Y-123138556D01*
X80122569Y-123101500D01*
X79897431Y-123101500D01*
X79675363Y-123138556D01*
X79462427Y-123211657D01*
X79264424Y-123318811D01*
X79086759Y-123457094D01*
X79023548Y-123525759D01*
X78970924Y-123559612D01*
X78908470Y-123563460D01*
X78852089Y-123536322D01*
X78816138Y-123485110D01*
X78791427Y-123418861D01*
X78770889Y-123363796D01*
X78711194Y-123284053D01*
X78683261Y-123246738D01*
X78566203Y-123159110D01*
X78429205Y-123108011D01*
X78398919Y-123104755D01*
X78368638Y-123101500D01*
X76571362Y-123101500D01*
X76544445Y-123104393D01*
X76510794Y-123108011D01*
X76373796Y-123159110D01*
X76256738Y-123246738D01*
X76169110Y-123363796D01*
X76118011Y-123500794D01*
X76114393Y-123534445D01*
X76111689Y-123559612D01*
X76111500Y-123561366D01*
X76111500Y-125358634D01*
X76118011Y-125419205D01*
X76169110Y-125556203D01*
X76256738Y-125673261D01*
X76373793Y-125760887D01*
X76373796Y-125760889D01*
X76491596Y-125804826D01*
X76541129Y-125838840D01*
X76568856Y-125892151D01*
X76568263Y-125952237D01*
X76539490Y-126004990D01*
X76394279Y-126162730D01*
X76271138Y-126351211D01*
X76200000Y-126513393D01*
X76180704Y-126557384D01*
X76136365Y-126732474D01*
X76125435Y-126775636D01*
X76106843Y-126999999D01*
X74930500Y-126999999D01*
X74930500Y-121984582D01*
X74931809Y-121966612D01*
X74932894Y-121959201D01*
X74935366Y-121942327D01*
X74930972Y-121892105D01*
X74930500Y-121881298D01*
X74930500Y-121875588D01*
X74929059Y-121863261D01*
X74926835Y-121844237D01*
X74926472Y-121840680D01*
X74920044Y-121767205D01*
X74919830Y-121764759D01*
X74919829Y-121764757D01*
X74919731Y-121763633D01*
X74915382Y-121744012D01*
X74888922Y-121671316D01*
X74887736Y-121667905D01*
X74886328Y-121663655D01*
X74863765Y-121595559D01*
X74863763Y-121595557D01*
X74863409Y-121594486D01*
X74854656Y-121576406D01*
X74836390Y-121548634D01*
X74812140Y-121511765D01*
X74810223Y-121508756D01*
X74804355Y-121499243D01*
X74770188Y-121443850D01*
X74770187Y-121443849D01*
X74769595Y-121442889D01*
X74756903Y-121427310D01*
X74741205Y-121412500D01*
X74700640Y-121374228D01*
X74698053Y-121371715D01*
X74226338Y-120900000D01*
X86330000Y-120900000D01*
X86330000Y-121106765D01*
X86344858Y-121276602D01*
X86403733Y-121496326D01*
X86499865Y-121702480D01*
X86630341Y-121888819D01*
X86791180Y-122049658D01*
X86977519Y-122180134D01*
X87183673Y-122276266D01*
X87379999Y-122328871D01*
X87380000Y-122328872D01*
X87380000Y-120900000D01*
X86330000Y-120900000D01*
X74226338Y-120900000D01*
X73726338Y-120400000D01*
X86330000Y-120400000D01*
X87380000Y-120400000D01*
X87380000Y-118971128D01*
X87379999Y-118971128D01*
X87183673Y-119023733D01*
X86977519Y-119119865D01*
X86791180Y-119250341D01*
X86630341Y-119411180D01*
X86499865Y-119597519D01*
X86403733Y-119803673D01*
X86344858Y-120023397D01*
X86330000Y-120193235D01*
X86330000Y-120400000D01*
X73726338Y-120400000D01*
X73482837Y-120156499D01*
X73471055Y-120142866D01*
X73456397Y-120123177D01*
X73417773Y-120090768D01*
X73409793Y-120083455D01*
X73405766Y-120079428D01*
X73381031Y-120059870D01*
X73378273Y-120057624D01*
X73319853Y-120008604D01*
X73319851Y-120008603D01*
X73318985Y-120007876D01*
X73302036Y-119997078D01*
X73231914Y-119964380D01*
X73228668Y-119962808D01*
X73159565Y-119928103D01*
X73140576Y-119921502D01*
X73064841Y-119905864D01*
X73061323Y-119905084D01*
X72986032Y-119887241D01*
X72966038Y-119885198D01*
X72898705Y-119887157D01*
X72888710Y-119887448D01*
X72885106Y-119887500D01*
X72602500Y-119887500D01*
X72540500Y-119870887D01*
X72495113Y-119825500D01*
X72478500Y-119763500D01*
X72478500Y-119751366D01*
X72478500Y-119751362D01*
X72471989Y-119690799D01*
X72471988Y-119690797D01*
X72471988Y-119690794D01*
X72420889Y-119553796D01*
X72333261Y-119436738D01*
X72216203Y-119349110D01*
X72079205Y-119298011D01*
X72048919Y-119294755D01*
X72018638Y-119291500D01*
X70221362Y-119291500D01*
X70194445Y-119294393D01*
X70160794Y-119298011D01*
X70023796Y-119349110D01*
X69906738Y-119436738D01*
X69819110Y-119553796D01*
X69768011Y-119690794D01*
X69761500Y-119751366D01*
X69761500Y-121548634D01*
X67310000Y-121548634D01*
X67310000Y-117472000D01*
X67326613Y-117410000D01*
X67372000Y-117364613D01*
X67434000Y-117348000D01*
X123066000Y-117348000D01*
X123128000Y-117364613D01*
G37*
G04 #@! TD.AperFunction*
M02*
